<svg xmlns="http://www.w3.org/2000/svg" width="51" height="45.82" viewBox="0 0 51 45.82">
  <g id="chat" transform="translate(0 0)">
    <path id="Path_7692" data-name="Path 7692" d="M247,100a1,1,0,1,0,1,1A1,1,0,0,0,247,100Zm0,0" transform="translate(-221.496 -90.039)"/>
    <path id="Path_7693" data-name="Path 7693" d="M81,261.992a1,1,0,1,0-1-1A1,1,0,0,0,81,261.992Zm0,0" transform="translate(-72.031 -234.102)"/>
    <path id="Path_7694" data-name="Path 7694" d="M33.469,0C24.5,0,17.141,6.182,16.572,13.97,8.031,14.4,0,20.557,0,28.886a13.919,13.919,0,0,0,3.885,9.526,6.058,6.058,0,0,1-1.6,5.707,1,1,0,0,0,.7,1.7A10.988,10.988,0,0,0,10.6,42.743a22.7,22.7,0,0,0,6.93,1.085c8.966,0,16.326-6.181,16.9-13.967A22.4,22.4,0,0,0,40.4,28.8a10.988,10.988,0,0,0,7.613,3.077,1,1,0,0,0,.7-1.7,6.058,6.058,0,0,1-1.6-5.707A13.919,13.919,0,0,0,51,14.941C51,6.286,42.35,0,33.469,0ZM17.531,41.835a20.136,20.136,0,0,1-6.824-1.175,1,1,0,0,0-1.1.253,8.988,8.988,0,0,1-4.47,2.653,8.056,8.056,0,0,0,.607-5.929.994.994,0,0,0-.244-.421,11.97,11.97,0,0,1-3.5-8.33c0-7.019,7.116-12.949,15.539-12.949,7.954,0,14.941,5.531,14.941,12.949,0,7.14-6.7,12.949-14.941,12.949ZM45.5,23.271a1,1,0,0,0-.244.421,8.056,8.056,0,0,0,.607,5.929,8.985,8.985,0,0,1-4.47-2.653,1,1,0,0,0-1.1-.253,19.623,19.623,0,0,1-5.868,1.151,14.258,14.258,0,0,0-5.382-9.936H42.035a1,1,0,0,0,0-1.992H25.982a18.577,18.577,0,0,0-7.413-1.963c.572-6.69,7.036-11.982,14.9-11.982,8.423,0,15.539,5.93,15.539,12.949a11.97,11.97,0,0,1-3.5,8.33Zm0,0"/>
    <path id="Path_7695" data-name="Path 7695" d="M133.547,260H121a1,1,0,0,0,0,1.992h12.551a1,1,0,0,0,0-1.992Zm0,0" transform="translate(-108.047 -234.102)"/>
    <path id="Path_7696" data-name="Path 7696" d="M97.531,320H81a1,1,0,0,0,0,1.992H97.531a1,1,0,0,0,0-1.992Zm0,0" transform="translate(-72.031 -288.125)"/>
    <path id="Path_7697" data-name="Path 7697" d="M299.547,100H287a1,1,0,1,0,0,1.992h12.551a1,1,0,1,0,0-1.992Zm0,0" transform="translate(-257.512 -90.039)"/>
  </g>
</svg>
