<svg xmlns="http://www.w3.org/2000/svg" width="19.314" height="26" viewBox="0 0 19.314 26"><g transform="translate(-14 -5)"><path d="M23.664,5a6.968,6.968,0,0,0-6.96,6.96v4.183h-1.59A1.116,1.116,0,0,0,14,17.257V29.886A1.116,1.116,0,0,0,15.114,31H32.2a1.116,1.116,0,0,0,1.114-1.114V17.257A1.116,1.116,0,0,0,32.2,16.143H30.624V11.96A6.968,6.968,0,0,0,23.664,5Zm-6.217,6.96a6.217,6.217,0,1,1,12.434,0v4.183H27.816V12.155a4.152,4.152,0,0,0-8.3,0v3.988H17.447Zm9.626,4.183H20.255V12.155a3.409,3.409,0,0,1,6.818,0v3.988Zm5.5,1.114V29.886a.372.372,0,0,1-.371.371H15.114a.372.372,0,0,1-.371-.371V17.257a.372.372,0,0,1,.371-.371H32.2A.372.372,0,0,1,32.571,17.257Z"/><path d="M34.4,48.716v2.155a1.3,1.3,0,0,0,2.6,0V48.716a2.538,2.538,0,1,0-2.6,0Zm1.3-3.973a1.794,1.794,0,0,1,.77,3.416l-.212.1v2.612a.557.557,0,0,1-1.114,0V48.259l-.212-.1a1.794,1.794,0,0,1,.77-3.416Z" transform="translate(-12.048 -24.514)"/></g></svg>