<svg xmlns="http://www.w3.org/2000/svg" width="53.325" height="47.153" viewBox="0 0 53.325 47.153">
  <g id="offline_classes" data-name="offline classes" transform="translate(-1.25 -60.121)">
    <path id="Path_7701" data-name="Path 7701" d="M185.2,356.062a4.375,4.375,0,1,0-6.389,0,5.647,5.647,0,0,0-2.455,4.656V363.9a1.192,1.192,0,1,0,2.383,0v-3.184a3.266,3.266,0,1,1,6.532,0V363.9a1.192,1.192,0,1,0,2.383,0v-3.184A5.647,5.647,0,0,0,185.2,356.062Zm-5.187-2.986A1.992,1.992,0,1,1,182,355.069,1.995,1.995,0,0,1,180.012,353.077Z" transform="translate(-175.105 -257.82)" fill="#1f1e1e"/>
    <path id="Path_7702" data-name="Path 7702" d="M32.864,89.062a.8.8,0,0,0,.8-.8v-.854a.055.055,0,0,1,.055-.055H67.042a.8.8,0,0,0,0-1.6h-8.6V74.6l2.871-.957a.8.8,0,1,0-.506-1.517L57.573,73.2a5.213,5.213,0,0,1-3.277,0l-3.235-1.078a.8.8,0,1,0-.506,1.517l2.871.957V85.754H35.373V62.629a.91.91,0,0,1,.909-.909h39.3a.91.91,0,0,1,.909.909V85.754H70.46a.8.8,0,1,0,0,1.6h7.69a.055.055,0,0,1,.055.055v.854a.8.8,0,0,0,1.6,0v-.854a1.656,1.656,0,0,0-1.654-1.654H78.1V62.629a2.511,2.511,0,0,0-2.508-2.508h-39.3a2.511,2.511,0,0,0-2.508,2.508V85.754h-.055a1.656,1.656,0,0,0-1.654,1.654v.854a.8.8,0,0,0,.8.8ZM56.844,75v3.915H55.025V75a6.72,6.72,0,0,0,1.819,0Zm-1.819,5.514h1.819v5.237H55.025Z" transform="translate(-28.647)" fill="#1f1e1e"/>
    <path id="Path_7705" data-name="Path 7705" d="M449.73,356.062a4.375,4.375,0,1,0-6.389,0,5.646,5.646,0,0,0-2.455,4.656V363.9a1.192,1.192,0,1,0,2.383,0v-3.184a3.266,3.266,0,1,1,6.532,0V363.9a1.192,1.192,0,1,0,2.383,0v-3.184A5.646,5.646,0,0,0,449.73,356.062Zm-5.187-2.986a1.992,1.992,0,1,1,1.992,1.992A1.995,1.995,0,0,1,444.544,353.077Z" transform="translate(-397.61 -257.82)" fill="#1f1e1e"/>
    <path id="Path_7706" data-name="Path 7706" d="M361.552,356.062a4.375,4.375,0,1,0-6.389,0,5.646,5.646,0,0,0-2.455,4.656V363.9a1.192,1.192,0,1,0,2.383,0v-3.184a3.266,3.266,0,1,1,6.532,0V363.9a1.192,1.192,0,1,0,2.383,0v-3.184A5.647,5.647,0,0,0,361.552,356.062Zm-5.187-2.986a1.992,1.992,0,1,1,1.992,1.992A1.995,1.995,0,0,1,356.366,353.077Z" transform="translate(-323.442 -257.82)" fill="#1f1e1e"/>
    <path id="Path_7707" data-name="Path 7707" d="M273.375,356.062a4.375,4.375,0,1,0-6.389,0,5.646,5.646,0,0,0-2.455,4.656V363.9a1.192,1.192,0,1,0,2.383,0v-3.184a3.266,3.266,0,1,1,6.532,0V363.9a1.192,1.192,0,1,0,2.383,0v-3.184A5.646,5.646,0,0,0,273.375,356.062Zm-5.187-2.986a1.992,1.992,0,1,1,1.992,1.992A1.995,1.995,0,0,1,268.189,353.077Z" transform="translate(-249.274 -257.82)" fill="#1f1e1e"/>
    <path id="Path_7708" data-name="Path 7708" d="M232.468,126.758a2.508,2.508,0,1,0,2.508-2.508A2.511,2.511,0,0,0,232.468,126.758Zm3.418,0a.909.909,0,1,1-.909-.909A.91.91,0,0,1,235.886,126.758Z" transform="translate(-207.689 -57.293)" fill="#1f1e1e"/>
  </g>
</svg>
