<svg xmlns="http://www.w3.org/2000/svg" width="51.667" height="45" viewBox="0 0 51.667 45">
  <g id="online_classes" data-name="online classes" transform="translate(-8 -40)">
    <g id="Group_635" data-name="Group 635" transform="translate(15.5 51.667)">
      <path id="Path_7698" data-name="Path 7698" d="M114.167,152v2.5H100.833L97.5,157.833V154.5H94.167V152H80v23.333h2.5v-2.5a4.167,4.167,0,0,1,4.167-4.167h1.667v-2.014a4.174,4.174,0,0,1-2.5-3.82v-2.6s3.282.821,8.218-1.609a4.229,4.229,0,0,1,.116.984v3.229a4.166,4.166,0,0,1-2.5,3.819v2.014h1.667a4.167,4.167,0,0,1,4.167,4.167v2.5h19.167V152Z" transform="translate(-80 -152)" fill="none"/>
      <path id="Path_7699" data-name="Path 7699" d="M200.833,402.5h10l.833-2.5H200Z" transform="translate(-187.5 -374.167)" fill="#1f1e1e"/>
    </g>
    <path id="Path_7700" data-name="Path 7700" d="M58.833,76.667H55.5V51.25a2.92,2.92,0,0,0-2.917-2.917H50.5v-7.5A.833.833,0,0,0,49.667,40h-20a.833.833,0,0,0-.833.833v7.5H15.083a2.92,2.92,0,0,0-2.917,2.917V76.667H8.833A.833.833,0,0,0,8,77.5v4.583A2.92,2.92,0,0,0,10.917,85H56.75a2.92,2.92,0,0,0,2.917-2.917V77.5A.833.833,0,0,0,58.833,76.667Zm-28.333-35H48.833V53.333h-12.5a.834.834,0,0,0-.59.244l-1.91,1.911V54.167A.833.833,0,0,0,33,53.333H30.5ZM29.667,55h2.5v2.5a.833.833,0,0,0,1.423.59L36.678,55H49.667a.833.833,0,0,0,.833-.833V52.5h.833V74.167h-17.5V72.5a5.005,5.005,0,0,0-5-5H28v-.673A5,5,0,0,0,30.5,62.5V59.167c0-.024,0-.047,0-.071a5.124,5.124,0,0,0-1.451-3.4A4.9,4.9,0,0,0,25.5,54.167a5.005,5.005,0,0,0-5,5V62.5A5,5,0,0,0,23,66.827V67.5h-.833a5.005,5.005,0,0,0-5,5v1.667h-.833V52.5h12.5v1.667A.833.833,0,0,0,29.667,55Zm0,17.5a.833.833,0,0,0-.833.833v.833H22.167v-.833a.833.833,0,0,0-1.667,0v.833H18.833V72.5a3.337,3.337,0,0,1,3.333-3.333h.977a2.5,2.5,0,0,0,4.712,0h.977A3.337,3.337,0,0,1,32.167,72.5v1.667H30.5v-.833A.833.833,0,0,0,29.667,72.5ZM22.828,60.862a15.5,15.5,0,0,0,6.005-1.332V62.5a3.333,3.333,0,1,1-6.667,0V60.842C22.362,60.854,22.582,60.862,22.828,60.862Zm-.661-1.692v0A3.337,3.337,0,0,1,25.5,55.833a3.377,3.377,0,0,1,3.022,2.015,15,15,0,0,1-4.866,1.315,9.621,9.621,0,0,1-1.49.008Zm4.167,8.258v.9a.833.833,0,0,1-1.667,0v-.9A4.937,4.937,0,0,0,26.333,67.429ZM13.833,51.25A1.251,1.251,0,0,1,15.083,50h13.75v.833H15.5a.833.833,0,0,0-.833.833V75a.833.833,0,0,0,.833.833H52.167A.833.833,0,0,0,53,75V51.667a.833.833,0,0,0-.833-.833H50.5V50h2.083a1.251,1.251,0,0,1,1.25,1.25V76.667h-40ZM38.51,78.333l-.278.833h-8.8l-.278-.833ZM58,82.083a1.251,1.251,0,0,1-1.25,1.25H10.917a1.251,1.251,0,0,1-1.25-1.25v-3.75H27.4l.644,1.93a.833.833,0,0,0,.791.57h10a.833.833,0,0,0,.791-.57l.644-1.93H58Z" fill="#1f1e1e"/>
  </g>
</svg>
